<svg width="67" height="29" viewBox="0 0 67 29" fill="currentColor" xmlns="http://www.w3.org/2000/svg">
<path d="M6.19141 28H0.496094V2.40625H6.19141V28ZM15.8945 28H10.4102V8.98047H15.5605L15.8945 13.041V28ZM13.7148 17.9453C13.7148 16 14.0254 14.3359 14.6465 12.9531C15.2676 11.5586 16.1348 10.4922 17.248 9.75391C18.373 9.00391 19.6738 8.62891 21.1504 8.62891C22.3457 8.62891 23.3887 8.86328 24.2793 9.33203C25.1816 9.80078 25.8848 10.5684 26.3887 11.6348C26.9043 12.7012 27.1621 14.1484 27.1621 15.9766V28H21.6426V15.9414C21.6426 15.1797 21.5312 14.5938 21.3086 14.1836C21.0977 13.7617 20.7754 13.4746 20.3418 13.3223C19.9199 13.1582 19.4043 13.0762 18.7949 13.0762C18.1621 13.0762 17.6172 13.1934 17.1602 13.4277C16.7031 13.6621 16.3223 13.9961 16.0176 14.4297C15.7246 14.8516 15.5078 15.3555 15.3672 15.9414C15.2266 16.5273 15.1562 17.1719 15.1562 17.875L13.7148 17.9453ZM36.2852 28H30.7832V0.982422H36.2852V28ZM40.0996 18.5781L35.5996 23.0605L33.5078 19.2109L37.0938 14.5352L41.6992 8.98047H48.291L40.0996 18.5781ZM37.2168 19.3516L41.1016 16.1875L48.8359 28H42.5254L37.2168 19.3516ZM60.3496 15.3438C60.3496 14.5234 60.1445 13.873 59.7344 13.3926C59.3359 12.9004 58.6914 12.6543 57.8008 12.6543C57.2969 12.6543 56.8633 12.7363 56.5 12.9004C56.1484 13.0645 55.873 13.3047 55.6738 13.6211C55.4863 13.9258 55.3926 14.3125 55.3926 14.7812H49.9082C49.9082 13.6211 50.2422 12.584 50.9102 11.6699C51.5898 10.7441 52.5391 10.0059 53.7578 9.45508C54.9883 8.9043 56.4355 8.62891 58.0996 8.62891C59.5879 8.62891 60.9121 8.88086 62.0723 9.38477C63.2441 9.87695 64.1699 10.627 64.8496 11.6348C65.5293 12.6309 65.8691 13.8789 65.8691 15.3789V23.2715C65.8691 24.4316 65.9336 25.3398 66.0625 25.9961C66.2031 26.6406 66.3965 27.209 66.6426 27.7012V28H61.123C60.8652 27.4492 60.6719 26.7637 60.543 25.9434C60.4141 25.1113 60.3496 24.2617 60.3496 23.3945V15.3438ZM61.0879 19.4746H58.416C57.1855 19.4746 56.3008 19.75 55.7617 20.3008C55.2344 20.8516 54.9707 21.5078 54.9707 22.2695C54.9707 22.832 55.1699 23.3008 55.5684 23.6758C55.9785 24.0391 56.5176 24.2207 57.1855 24.2207C57.8887 24.2207 58.498 24.0859 59.0137 23.8164C59.5293 23.5352 59.9219 23.207 60.1914 22.832C60.4727 22.4453 60.6016 22.0879 60.5781 21.7598L61.9492 24.1152C61.7617 24.584 61.5098 25.0645 61.1934 25.5566C60.8887 26.0488 60.502 26.5059 60.0332 26.9277C59.5645 27.3496 58.9961 27.6953 58.3281 27.9648C57.6602 28.2227 56.8691 28.3516 55.9551 28.3516C54.7598 28.3516 53.6699 28.1113 52.6855 27.6309C51.7012 27.1387 50.916 26.4648 50.3301 25.6094C49.7559 24.7422 49.4688 23.7461 49.4688 22.6211C49.4688 20.6406 50.2012 19.0996 51.666 17.998C53.1426 16.8965 55.3574 16.3457 58.3105 16.3457H61.0527L61.0879 19.4746Z"/>
</svg>
